<svg  viewBox="0 0 58 9" fill="currentColor" xmlns="http://www.w3.org/2000/svg">
<path d="M52.8793 3.1413V2.8388C53.1198 2.8388 53.2982 2.81941 53.4145 2.78063C53.5308 2.74185 53.6472 2.67204 53.7635 2.57121L55.8345 0.709702H55.9392V2.8388H57.44V3.1413H55.9392V7.05047C55.9392 7.42277 55.9818 7.68648 56.0672 7.84161C56.1602 7.98898 56.3154 8.06266 56.5325 8.06266C56.7032 8.06266 56.8544 8.02776 56.9863 7.95795C57.1181 7.88815 57.2616 7.76792 57.4167 7.59729L57.6029 7.81834C57.1143 8.36128 56.3929 8.63275 55.4389 8.63275C54.7951 8.63275 54.3336 8.49701 54.0544 8.22554C53.7752 7.95407 53.6356 7.53136 53.6356 6.95739V3.1413H52.8793Z" />
<path d="M52.2148 1.95458C51.8502 1.95458 51.5594 1.87314 51.3422 1.71026C51.125 1.53962 51.0164 1.2953 51.0164 0.977292C51.0164 0.659284 51.125 0.418839 51.3422 0.255958C51.5594 0.0853192 51.8502 0 52.2148 0C52.5793 0 52.8702 0.0853192 53.0874 0.255958C53.3045 0.418839 53.4131 0.659284 53.4131 0.977292C53.4131 1.2953 53.3045 1.53962 53.0874 1.71026C52.8702 1.87314 52.5793 1.95458 52.2148 1.95458ZM50.3649 8.28372L50.7721 8.19064C50.8885 8.16737 50.9622 8.14022 50.9932 8.1092C51.032 8.07817 51.0513 8.02 51.0513 7.93468V3.53687C51.0513 3.45155 51.032 3.39338 50.9932 3.36235C50.9622 3.33133 50.8885 3.30418 50.7721 3.28091L50.3649 3.18783V2.97841L53.1572 2.62938H53.3782V7.93468C53.3782 8.02 53.3937 8.07817 53.4248 8.1092C53.4636 8.14022 53.5411 8.16737 53.6575 8.19064L54.0647 8.28372V8.49314H50.3649V8.28372Z" />
<path d="M42.1813 3.44379C42.476 3.23437 42.8212 3.05985 43.2167 2.92024C43.6123 2.77287 44.0467 2.69919 44.5198 2.69919C45.4816 2.69919 46.0943 2.98617 46.358 3.56013C46.6528 3.31969 47.0096 3.11803 47.4284 2.95514C47.855 2.78451 48.3281 2.69919 48.8478 2.69919C49.5691 2.69919 50.0849 2.85043 50.3952 3.15293C50.7054 3.45542 50.8606 3.90917 50.8606 4.51416V7.93468C50.8606 8.02 50.8761 8.07817 50.9071 8.1092C50.9459 8.14022 51.0234 8.16737 51.1398 8.19064L51.547 8.28371V8.49313H49.127C48.9176 8.49313 48.7664 8.43884 48.6733 8.33025C48.5802 8.22166 48.5337 8.05878 48.5337 7.8416V4.30474C48.5337 3.9557 48.4755 3.7075 48.3592 3.56013C48.2506 3.41276 48.0644 3.33908 47.8007 3.33908C47.3819 3.33908 46.9359 3.50972 46.4627 3.85099C46.5093 4.0449 46.5325 4.26596 46.5325 4.51416V7.93468C46.5325 8.02 46.5481 8.07817 46.5791 8.1092C46.6179 8.14022 46.6954 8.16737 46.8118 8.19064L47.219 8.28371V8.49313H44.799C44.5896 8.49313 44.4384 8.43884 44.3453 8.33025C44.2522 8.22166 44.2057 8.05878 44.2057 7.8416V4.30474C44.2057 3.9557 44.1475 3.7075 44.0311 3.56013C43.9226 3.41276 43.7364 3.33908 43.4727 3.33908C43.0616 3.33908 42.6389 3.49421 42.2045 3.80446V7.93468C42.2045 8.02 42.2201 8.08205 42.2511 8.12083C42.2899 8.15186 42.3635 8.179 42.4721 8.20227L42.8677 8.28371V8.49313H39.1912V8.28371L39.5984 8.19064C39.7148 8.16737 39.7885 8.14022 39.8195 8.1092C39.8583 8.07817 39.8777 8.02 39.8777 7.93468V3.53686C39.8777 3.45155 39.8583 3.39337 39.8195 3.36235C39.7885 3.33132 39.7148 3.30418 39.5984 3.28091L39.1912 3.18783V2.97841L41.9835 2.62938H42.1813V3.44379Z"/>
<path d="M31.0309 3.44379C31.3256 3.23437 31.6707 3.05985 32.0663 2.92024C32.4619 2.77287 32.8962 2.69919 33.3694 2.69919C34.3312 2.69919 34.9439 2.98617 35.2076 3.56013C35.5024 3.31969 35.8591 3.11803 36.278 2.95514C36.7046 2.78451 37.1777 2.69919 37.6974 2.69919C38.4187 2.69919 38.9345 2.85043 39.2448 3.15293C39.555 3.45542 39.7101 3.90917 39.7101 4.51416V7.93468C39.7101 8.02 39.7256 8.07817 39.7567 8.1092C39.7955 8.14022 39.873 8.16737 39.9894 8.19064L40.3966 8.28371V8.49313H37.9766C37.7672 8.49313 37.6159 8.43884 37.5229 8.33025C37.4298 8.22166 37.3832 8.05878 37.3832 7.8416V4.30474C37.3832 3.9557 37.3251 3.7075 37.2087 3.56013C37.1001 3.41276 36.914 3.33908 36.6503 3.33908C36.2314 3.33908 35.7855 3.50972 35.3123 3.85099C35.3589 4.0449 35.3821 4.26596 35.3821 4.51416V7.93468C35.3821 8.02 35.3976 8.07817 35.4287 8.1092C35.4674 8.14022 35.545 8.16737 35.6614 8.19064L36.0686 8.28371V8.49313H33.6486C33.4392 8.49313 33.2879 8.43884 33.1949 8.33025C33.1018 8.22166 33.0552 8.05878 33.0552 7.8416V4.30474C33.0552 3.9557 32.9971 3.7075 32.8807 3.56013C32.7721 3.41276 32.586 3.33908 32.3223 3.33908C31.9112 3.33908 31.4885 3.49421 31.0541 3.80446V7.93468C31.0541 8.02 31.0696 8.08205 31.1007 8.12083C31.1394 8.15186 31.2131 8.179 31.3217 8.20227L31.7173 8.28371V8.49313H28.0408V8.28371L28.448 8.19064C28.5644 8.16737 28.638 8.14022 28.6691 8.1092C28.7078 8.07817 28.7272 8.02 28.7272 7.93468V3.53686C28.7272 3.45155 28.7078 3.39337 28.6691 3.36235C28.638 3.33132 28.5644 3.30418 28.448 3.28091L28.0408 3.18783V2.97841L30.8331 2.62938H31.0309V3.44379Z" />
<path d="M28.9293 5.66597C28.9293 6.66653 28.6152 7.41113 27.9869 7.89978C27.3664 8.38843 26.4705 8.63275 25.2993 8.63275C24.1281 8.63275 23.2284 8.38843 22.6002 7.89978C21.9797 7.41113 21.6694 6.66653 21.6694 5.66597C21.6694 4.66541 21.9797 3.9208 22.6002 3.43216C23.2284 2.94351 24.1281 2.69919 25.2993 2.69919C26.4705 2.69919 27.3664 2.94351 27.9869 3.43216C28.6152 3.9208 28.9293 4.66541 28.9293 5.66597ZM24.0894 5.66597C24.0894 6.35628 24.1204 6.88758 24.1824 7.25989C24.2522 7.63219 24.3725 7.90366 24.5431 8.0743C24.7137 8.24493 24.9658 8.33025 25.2993 8.33025C25.6329 8.33025 25.8849 8.24493 26.0556 8.0743C26.2262 7.90366 26.3426 7.63219 26.4046 7.25989C26.4744 6.88758 26.5093 6.35628 26.5093 5.66597C26.5093 4.97566 26.4744 4.44435 26.4046 4.07205C26.3426 3.69975 26.2262 3.42828 26.0556 3.25764C25.8849 3.087 25.6329 3.00168 25.2993 3.00168C24.9658 3.00168 24.7137 3.087 24.5431 3.25764C24.3725 3.42828 24.2522 3.69975 24.1824 4.07205C24.1204 4.44435 24.0894 4.97566 24.0894 5.66597Z" />
<path d="M19.9486 8.05103C20.3752 8.05103 20.7591 7.98122 21.1004 7.84161C21.4494 7.70199 21.7791 7.50809 22.0893 7.25989L22.322 7.51584C21.9807 7.83385 21.5348 8.10144 20.9841 8.31862C20.4411 8.52804 19.84 8.63275 19.1807 8.63275C17.8777 8.63275 16.8073 8.29147 15.9696 7.60892C15.1319 6.91861 14.7131 5.81722 14.7131 4.30474C14.7131 2.90085 15.1281 1.86926 15.958 1.20998C16.7957 0.54294 17.8893 0.209419 19.2389 0.209419C19.7818 0.209419 20.317 0.259835 20.8444 0.360667C21.3719 0.461498 21.7868 0.585599 22.0893 0.732968L21.9265 2.73409H21.6007C21.3835 2.07481 21.0888 1.54738 20.7165 1.15181C20.3519 0.748481 19.8633 0.546818 19.2505 0.546818C18.5447 0.546818 18.0367 0.837678 17.7264 1.4194C17.4239 1.99337 17.2727 2.85431 17.2727 4.00224C17.2727 5.35959 17.4705 6.37567 17.866 7.05047C18.2616 7.71751 18.9558 8.05103 19.9486 8.05103Z" />
<path d="M11.1273 5.51472C11.1351 6.37567 11.2708 7.03108 11.5346 7.48094C11.806 7.9308 12.3102 8.15574 13.047 8.15574C13.4116 8.15574 13.7335 8.10144 14.0127 7.99286C14.2997 7.88427 14.5944 7.72914 14.8969 7.52748L15.0481 7.74853C14.3268 8.33801 13.3728 8.63275 12.1861 8.63275C11.1157 8.63275 10.2703 8.37679 9.64977 7.86488C9.03703 7.3452 8.73065 6.58897 8.73065 5.59616C8.73065 4.65765 9.04478 3.94019 9.67304 3.44379C10.3013 2.94739 11.1816 2.69919 12.3141 2.69919C12.9578 2.69919 13.5008 2.80002 13.9429 3.00168C14.385 3.20335 14.7107 3.47482 14.9202 3.81609C15.1373 4.14961 15.2459 4.52192 15.2459 4.933C15.2459 5.14242 15.2265 5.33633 15.1878 5.51472H11.1273ZM12.2443 2.97841C11.8177 2.97841 11.5268 3.15681 11.3717 3.5136C11.2165 3.87039 11.1351 4.4366 11.1273 5.21223H13.0819V4.33964C13.0819 3.86651 13.0238 3.52135 12.9074 3.30418C12.7988 3.087 12.5778 2.97841 12.2443 2.97841Z" />
<path d="M5.21469 5.51472C5.22244 6.37567 5.35818 7.03108 5.62189 7.48094C5.89336 7.9308 6.39752 8.15574 7.13437 8.15574C7.49891 8.15574 7.8208 8.10144 8.10003 7.99286C8.38701 7.88427 8.68175 7.72914 8.98424 7.52748L9.13549 7.74853C8.41416 8.33801 7.46013 8.63275 6.27342 8.63275C5.20305 8.63275 4.35762 8.37679 3.73711 7.86488C3.12437 7.3452 2.81799 6.58897 2.81799 5.59616C2.81799 4.65765 3.13212 3.94019 3.76038 3.44379C4.38864 2.94739 5.26898 2.69919 6.4014 2.69919C7.04517 2.69919 7.58811 2.80002 8.03022 3.00168C8.47233 3.20335 8.79809 3.47482 9.00751 3.81609C9.22469 4.14961 9.33328 4.52192 9.33328 4.933C9.33328 5.14242 9.31388 5.33633 9.2751 5.51472H5.21469ZM6.33159 2.97841C5.905 2.97841 5.61414 3.15681 5.45901 3.5136C5.30388 3.87039 5.22244 4.4366 5.21469 5.21223H7.16927V4.33964C7.16927 3.86651 7.1111 3.52135 6.99475 3.30418C6.88617 3.087 6.66511 2.97841 6.33159 2.97841Z" />
<path d="M0 8.28372L0.407205 8.19064C0.523549 8.16737 0.597234 8.14022 0.628259 8.1092C0.667041 8.07817 0.686432 8.02 0.686432 7.93468V0.907486C0.686432 0.822166 0.667041 0.763994 0.628259 0.732969C0.597234 0.701944 0.523549 0.674797 0.407205 0.651528L0 0.558452V0.349033L2.79226 0H3.01332V7.93468C3.01332 8.02 3.02883 8.07817 3.05986 8.1092C3.09864 8.14022 3.1762 8.16737 3.29254 8.19064L3.69975 8.28372V8.49314H0V8.28372Z"/>
</svg>
