<?xml version="1.0" encoding="UTF-8"?>
<svg id="_레이어_1" data-name="레이어 1" xmlns="http://www.w3.org/2000/svg" version="1.1" viewBox="0 120 289.1 200">
  <defs>
    <style>
      .cls-1 {
        fill: #000;
        stroke-width: 0px;
      }
    </style>
  </defs>
  <path class="cls-1" d="M42,222.5l1.9-.5c.6-.1.9-.3,1.1-.4.2-.2.3-.5.3-.9v-35.9c0-.4,0-.7-.3-.9-.2-.2-.5-.3-1.1-.4l-1.9-.5v-1.1l13.4-1.8h1.1v40.5c0,.4,0,.7.3.9.2.2.5.3,1.1.4l1.9.5v1.1h-17.7v-1.1Z"/>
  <path class="cls-1" d="M69.5,218.4c1.3,2.3,3.7,3.4,7.2,3.4s3.3-.3,4.6-.8c1.4-.6,2.8-1.3,4.2-2.4l.7,1.1c-3.5,3-8,4.5-13.7,4.5s-9.2-1.3-12.1-4c-3-2.6-4.4-6.5-4.4-11.6s1.5-8.5,4.5-11c3-2.5,7.2-3.8,12.6-3.8s5.7.5,7.8,1.5c2.1,1,3.7,2.4,4.7,4.1,1,1.7,1.5,3.6,1.5,5.7s0,2.1-.3,3h-19.4c0,4.4.7,7.7,2,10ZM68.7,198.1c-.7,1.8-1.1,4.7-1.2,8.7h9.4v-4.5c0-2.4-.3-4.2-.8-5.3-.5-1.1-1.6-1.7-3.2-1.7s-3.4.9-4.2,2.7Z"/>
  <path class="cls-1" d="M98.3,218.4c1.3,2.3,3.7,3.4,7.2,3.4s3.3-.3,4.7-.8c1.4-.6,2.8-1.3,4.2-2.4l.7,1.1c-3.5,3-8,4.5-13.7,4.5s-9.2-1.3-12.1-4c-3-2.6-4.4-6.5-4.4-11.6s1.5-8.5,4.5-11c3-2.5,7.2-3.8,12.6-3.8s5.7.5,7.8,1.5c2.1,1,3.7,2.4,4.7,4.1,1,1.7,1.5,3.6,1.5,5.7s0,2.1-.3,3h-19.4c0,4.4.7,7.7,2,10ZM97.5,198.1c-.7,1.8-1.1,4.7-1.2,8.7h9.4v-4.5c0-2.4-.3-4.2-.8-5.3-.5-1.1-1.6-1.7-3.2-1.7s-3.4.9-4.2,2.7Z"/>
  <path class="cls-1" d="M74.4,260.8c1.7-.7,3.2-1.7,4.7-3l1.1,1.3c-1.6,1.6-3.8,3-6.4,4.1-2.6,1.1-5.5,1.6-8.7,1.6-6.2,0-11.4-1.8-15.4-5.3s-6-9.1-6-16.8,2-12.4,6-15.8c4-3.4,9.2-5.1,15.7-5.1s5.2.3,7.7.8c2.5.5,4.5,1.1,6,1.9l-.8,10.2h-1.6c-1-3.4-2.4-6.1-4.2-8.1-1.8-2-4.1-3.1-7-3.1s-5.8,1.5-7.3,4.4c-1.5,3-2.2,7.4-2.2,13.2s.9,12.1,2.8,15.5c1.9,3.4,5.2,5.1,10,5.1s3.9-.4,5.5-1.1Z"/>
  <path class="cls-1" d="M107.9,261.1c-3,2.5-7.3,3.7-12.9,3.7s-9.9-1.2-12.9-3.7c-3-2.5-4.5-6.3-4.5-11.4s1.5-8.9,4.5-11.4c3-2.5,7.3-3.7,12.9-3.7s9.9,1.2,12.9,3.7c3,2.5,4.5,6.3,4.5,11.4s-1.5,8.9-4.5,11.4ZM89.7,257.9c.3,1.9.9,3.3,1.7,4.2.8.9,2,1.3,3.6,1.3s2.8-.4,3.6-1.3c.8-.9,1.4-2.3,1.7-4.2.3-1.9.5-4.6.5-8.1s-.2-6.2-.5-8.1c-.3-1.9-.9-3.3-1.7-4.2-.8-.9-2-1.3-3.6-1.3s-2.8.4-3.6,1.3c-.8.9-1.4,2.3-1.7,4.2-.3,1.9-.5,4.6-.5,8.1s.2,6.2.5,8.1Z"/>
  <path class="cls-1" d="M128,235.7c1.9-.7,4-1.1,6.2-1.1,4.6,0,7.5,1.5,8.8,4.4,1.4-1.2,3.1-2.3,5.2-3.1,2-.9,4.3-1.3,6.8-1.3s5.9.8,7.4,2.3c1.5,1.5,2.2,3.9,2.2,7v17.5c0,.4,0,.7.2.9.2.2.5.3,1.1.4l1.9.5v1.1h-11.6c-1,0-1.7-.3-2.2-.8-.4-.6-.7-1.4-.7-2.5v-18.1c0-1.8-.3-3.1-.8-3.8-.5-.8-1.4-1.1-2.7-1.1-2,0-4.1.9-6.4,2.6.2,1,.3,2.1.3,3.4v17.5c0,.4,0,.7.2.9.2.2.5.3,1.1.4l1.9.5v1.1h-11.6c-1,0-1.7-.3-2.2-.8-.4-.6-.7-1.4-.7-2.5v-18.1c0-1.8-.3-3.1-.8-3.8-.5-.8-1.4-1.1-2.7-1.1-2,0-4,.8-6.1,2.4v21.1c0,.4,0,.7.2.9.2.2.5.3,1,.4l1.9.4v1.1h-17.6v-1.1l1.9-.5c.6-.1.9-.3,1.1-.4.2-.2.2-.5.2-.9v-22.5c0-.4,0-.7-.2-.9-.2-.2-.5-.3-1.1-.4l-1.9-.5v-1.1l13.4-1.8h.9v4.2c1.4-1.1,3.1-2,5-2.7Z"/>
  <path class="cls-1" d="M181.9,235.7c1.9-.7,4-1.1,6.2-1.1,4.6,0,7.5,1.5,8.8,4.4,1.4-1.2,3.1-2.3,5.2-3.1,2-.9,4.3-1.3,6.8-1.3s5.9.8,7.4,2.3c1.5,1.5,2.2,3.9,2.2,7v17.5c0,.4,0,.7.2.9.2.2.5.3,1.1.4l1.9.5v1.1h-11.6c-1,0-1.7-.3-2.2-.8-.4-.6-.7-1.4-.7-2.5v-18.1c0-1.8-.3-3.1-.8-3.8-.5-.8-1.4-1.1-2.7-1.1-2,0-4.1.9-6.4,2.6.2,1,.3,2.1.3,3.4v17.5c0,.4,0,.7.2.9.2.2.5.3,1.1.4l1.9.5v1.1h-11.6c-1,0-1.7-.3-2.2-.8-.4-.6-.7-1.4-.7-2.5v-18.1c0-1.8-.3-3.1-.8-3.8-.5-.8-1.4-1.1-2.7-1.1-2,0-4,.8-6.1,2.4v21.1c0,.4,0,.7.2.9.2.2.5.3,1,.4l1.9.4v1.1h-17.6v-1.1l1.9-.5c.6-.1.9-.3,1.1-.4.2-.2.2-.5.2-.9v-22.5c0-.4,0-.7-.2-.9-.2-.2-.5-.3-1.1-.4l-1.9-.5v-1.1l13.4-1.8h.9v4.2c1.4-1.1,3.1-2,5-2.7Z"/>
  <path class="cls-1" d="M216.6,263.1l1.9-.5c.6-.1.9-.3,1.1-.4.2-.2.2-.5.2-.9v-22.5c0-.4,0-.7-.2-.9-.2-.2-.5-.3-1.1-.4l-1.9-.5v-1.1l13.4-1.8h1.1v27.1c0,.4,0,.7.2.9.2.2.5.3,1.1.4l1.9.5v1.1h-17.7v-1.1ZM221.3,229.5c-1-.9-1.6-2.1-1.6-3.7s.5-2.9,1.6-3.7c1-.9,2.4-1.3,4.2-1.3s3.1.4,4.2,1.3c1,.9,1.6,2.1,1.6,3.7s-.5,2.9-1.6,3.7c-1,.9-2.4,1.3-4.2,1.3s-3.1-.4-4.2-1.3Z"/>
  <path class="cls-1" d="M229.2,236.8v-1.5c1.2,0,2,0,2.6-.3s1.1-.6,1.7-1.1l9.9-9.5h.5v10.9h7.2v1.5h-7.2v20c0,1.9.2,3.2.6,4,.4.8,1.2,1.2,2.2,1.2s1.5-.2,2.2-.5c.6-.4,1.3-1,2.1-1.8l.9,1.1c-2.3,2.8-5.8,4.2-10.4,4.2s-5.3-.7-6.6-2.1c-1.3-1.4-2-3.5-2-6.5v-19.5h-3.6Z"/>
</svg>